<mxfile host="app.diagrams.net" modified="2024-03-28T13:54:54.873Z" agent="Mozilla/5.0 (X11; Linux x86_64; rv:124.0) Gecko/20100101 Firefox/124.0" etag="GOQplnkawm6veyuCAPS6" version="24.0.7" type="device">
  <diagram name="Page-1" id="XiNQi3MD_Eawfd6cl3Mb">
    <mxGraphModel dx="1669" dy="437" grid="1" gridSize="10" guides="1" tooltips="1" connect="1" arrows="1" fold="1" page="1" pageScale="1" pageWidth="850" pageHeight="1100" math="0" shadow="0">
      <root>
        <mxCell id="0" />
        <mxCell id="1" parent="0" />
        <mxCell id="BgCJaiuoZDFU1bR-Cb24-1" value="Open Policy Agent" style="rounded=1;whiteSpace=wrap;html=1;" vertex="1" parent="1">
          <mxGeometry x="320" y="410" width="120" height="60" as="geometry" />
        </mxCell>
        <mxCell id="BgCJaiuoZDFU1bR-Cb24-2" value="ODRL PAP" style="rounded=1;whiteSpace=wrap;html=1;" vertex="1" parent="1">
          <mxGeometry x="320" y="220" width="120" height="60" as="geometry" />
        </mxCell>
        <mxCell id="BgCJaiuoZDFU1bR-Cb24-3" value="" style="endArrow=classic;html=1;rounded=0;entryX=0.75;entryY=1;entryDx=0;entryDy=0;exitX=0.75;exitY=0;exitDx=0;exitDy=0;" edge="1" parent="1" source="BgCJaiuoZDFU1bR-Cb24-1" target="BgCJaiuoZDFU1bR-Cb24-2">
          <mxGeometry width="50" height="50" relative="1" as="geometry">
            <mxPoint x="280" y="410" as="sourcePoint" />
            <mxPoint x="330" y="360" as="targetPoint" />
          </mxGeometry>
        </mxCell>
        <mxCell id="BgCJaiuoZDFU1bR-Cb24-4" value="getPolicies" style="edgeLabel;html=1;align=center;verticalAlign=middle;resizable=0;points=[];" vertex="1" connectable="0" parent="BgCJaiuoZDFU1bR-Cb24-3">
          <mxGeometry x="-0.2308" y="-1" relative="1" as="geometry">
            <mxPoint x="9" as="offset" />
          </mxGeometry>
        </mxCell>
        <mxCell id="BgCJaiuoZDFU1bR-Cb24-5" value="" style="endArrow=classic;html=1;rounded=0;exitX=0.25;exitY=0;exitDx=0;exitDy=0;entryX=0.25;entryY=1;entryDx=0;entryDy=0;" edge="1" parent="1" source="BgCJaiuoZDFU1bR-Cb24-1" target="BgCJaiuoZDFU1bR-Cb24-2">
          <mxGeometry width="50" height="50" relative="1" as="geometry">
            <mxPoint x="160" y="340" as="sourcePoint" />
            <mxPoint x="210" y="290" as="targetPoint" />
          </mxGeometry>
        </mxCell>
        <mxCell id="BgCJaiuoZDFU1bR-Cb24-6" value="getMethods" style="edgeLabel;html=1;align=center;verticalAlign=middle;resizable=0;points=[];" vertex="1" connectable="0" parent="BgCJaiuoZDFU1bR-Cb24-5">
          <mxGeometry x="-0.1846" y="-1" relative="1" as="geometry">
            <mxPoint y="3" as="offset" />
          </mxGeometry>
        </mxCell>
        <mxCell id="BgCJaiuoZDFU1bR-Cb24-7" value="&lt;div&gt;Policy Enforcement Point&lt;/div&gt;&lt;div&gt;(Kong, Apisix, Envoy)&lt;br&gt;&lt;/div&gt;" style="rounded=1;whiteSpace=wrap;html=1;" vertex="1" parent="1">
          <mxGeometry x="60" y="410" width="120" height="60" as="geometry" />
        </mxCell>
        <mxCell id="BgCJaiuoZDFU1bR-Cb24-12" value="" style="edgeStyle=orthogonalEdgeStyle;rounded=0;orthogonalLoop=1;jettySize=auto;html=1;entryX=0;entryY=0.5;entryDx=0;entryDy=0;" edge="1" parent="1" source="BgCJaiuoZDFU1bR-Cb24-8" target="BgCJaiuoZDFU1bR-Cb24-7">
          <mxGeometry relative="1" as="geometry">
            <mxPoint x="120" y="360" as="targetPoint" />
          </mxGeometry>
        </mxCell>
        <mxCell id="BgCJaiuoZDFU1bR-Cb24-8" value="User" style="shape=umlActor;verticalLabelPosition=bottom;verticalAlign=top;html=1;outlineConnect=0;" vertex="1" parent="1">
          <mxGeometry x="-30" y="410" width="30" height="60" as="geometry" />
        </mxCell>
        <mxCell id="BgCJaiuoZDFU1bR-Cb24-13" value="" style="endArrow=classic;html=1;rounded=0;entryX=0;entryY=0.25;entryDx=0;entryDy=0;exitX=1;exitY=0.25;exitDx=0;exitDy=0;" edge="1" parent="1" source="BgCJaiuoZDFU1bR-Cb24-7" target="BgCJaiuoZDFU1bR-Cb24-1">
          <mxGeometry width="50" height="50" relative="1" as="geometry">
            <mxPoint x="210" y="430" as="sourcePoint" />
            <mxPoint x="260" y="380" as="targetPoint" />
          </mxGeometry>
        </mxCell>
        <mxCell id="BgCJaiuoZDFU1bR-Cb24-14" value="query request" style="edgeLabel;html=1;align=center;verticalAlign=middle;resizable=0;points=[];" vertex="1" connectable="0" parent="BgCJaiuoZDFU1bR-Cb24-13">
          <mxGeometry x="-0.1816" relative="1" as="geometry">
            <mxPoint x="13" as="offset" />
          </mxGeometry>
        </mxCell>
        <mxCell id="BgCJaiuoZDFU1bR-Cb24-15" value="Target Service" style="rounded=1;whiteSpace=wrap;html=1;" vertex="1" parent="1">
          <mxGeometry x="60" y="220" width="120" height="60" as="geometry" />
        </mxCell>
        <mxCell id="BgCJaiuoZDFU1bR-Cb24-16" value="" style="endArrow=classic;html=1;rounded=0;entryX=0.5;entryY=1;entryDx=0;entryDy=0;exitX=0.5;exitY=0;exitDx=0;exitDy=0;" edge="1" parent="1" source="BgCJaiuoZDFU1bR-Cb24-7" target="BgCJaiuoZDFU1bR-Cb24-15">
          <mxGeometry width="50" height="50" relative="1" as="geometry">
            <mxPoint x="60" y="390" as="sourcePoint" />
            <mxPoint x="110" y="340" as="targetPoint" />
          </mxGeometry>
        </mxCell>
        <mxCell id="BgCJaiuoZDFU1bR-Cb24-17" value="request" style="edgeLabel;html=1;align=center;verticalAlign=middle;resizable=0;points=[];" vertex="1" connectable="0" parent="BgCJaiuoZDFU1bR-Cb24-16">
          <mxGeometry x="-0.2242" relative="1" as="geometry">
            <mxPoint as="offset" />
          </mxGeometry>
        </mxCell>
        <mxCell id="BgCJaiuoZDFU1bR-Cb24-19" value="" style="endArrow=classic;html=1;rounded=0;exitX=0;exitY=0.75;exitDx=0;exitDy=0;entryX=1;entryY=0.75;entryDx=0;entryDy=0;" edge="1" parent="1" source="BgCJaiuoZDFU1bR-Cb24-1" target="BgCJaiuoZDFU1bR-Cb24-7">
          <mxGeometry width="50" height="50" relative="1" as="geometry">
            <mxPoint x="210" y="520" as="sourcePoint" />
            <mxPoint x="260" y="470" as="targetPoint" />
          </mxGeometry>
        </mxCell>
        <mxCell id="BgCJaiuoZDFU1bR-Cb24-20" value="evaluation result" style="edgeLabel;html=1;align=center;verticalAlign=middle;resizable=0;points=[];" vertex="1" connectable="0" parent="BgCJaiuoZDFU1bR-Cb24-19">
          <mxGeometry x="0.2143" y="1" relative="1" as="geometry">
            <mxPoint x="15" as="offset" />
          </mxGeometry>
        </mxCell>
        <mxCell id="BgCJaiuoZDFU1bR-Cb24-21" value="Administrator" style="shape=umlActor;verticalLabelPosition=bottom;verticalAlign=top;html=1;outlineConnect=0;" vertex="1" parent="1">
          <mxGeometry x="570" y="220" width="30" height="60" as="geometry" />
        </mxCell>
        <mxCell id="BgCJaiuoZDFU1bR-Cb24-24" value="" style="endArrow=classic;html=1;rounded=0;entryX=1;entryY=0.5;entryDx=0;entryDy=0;" edge="1" parent="1" source="BgCJaiuoZDFU1bR-Cb24-21" target="BgCJaiuoZDFU1bR-Cb24-2">
          <mxGeometry width="50" height="50" relative="1" as="geometry">
            <mxPoint x="450" y="230" as="sourcePoint" />
            <mxPoint x="500" y="180" as="targetPoint" />
          </mxGeometry>
        </mxCell>
        <mxCell id="BgCJaiuoZDFU1bR-Cb24-25" value="create ODRL Policy" style="edgeLabel;html=1;align=center;verticalAlign=middle;resizable=0;points=[];" vertex="1" connectable="0" parent="BgCJaiuoZDFU1bR-Cb24-24">
          <mxGeometry x="0.1558" relative="1" as="geometry">
            <mxPoint x="13" as="offset" />
          </mxGeometry>
        </mxCell>
      </root>
    </mxGraphModel>
  </diagram>
</mxfile>
